<svg xmlns="http://www.w3.org/2000/svg" width="300" height="300" version="1.0" viewBox="0 0 700 700"><path fill="white" d="M379 72.7c-11.6 1.7-22.5 12.4-25.3 24.8-1.3 6.3-1.6 35.6-.3 43 2.3 13.7 17 27.9 32.1 31.1 34.8 7.4 66.7 24.4 91 48.9 11.9 11.9 15.3 16 23.7 28.5 12.8 18.9 24.1 45.9 27.3 65.2.3 1.8.8 4 1 4.8 2.7 9.8 2.7 48.3 0 62-4.4 22.7-12.6 44.8-23.1 62.3-11.2 18.6-32.5 42.1-47.8 52.6-1.2.8-2.3 1.8-2.6 2.1-1.1 1.3-17.1 10.9-24.5 14.7-13.4 6.8-32.2 13.2-46.5 15.9-1.4.2-3.5.6-4.7.9-8.4 1.9-40 2.7-51.7 1.2-22.9-2.7-42.8-9.2-66.8-21.5-13.2-6.8-20.2-8.7-29.8-8-13.3 1-18.7 4.8-37.5 26.3-10.6 12.1-13.7 18.2-14.1 27.8-.5 11.9 4 20.5 14.4 27.5 28 19 63.6 34.1 95.7 40.8 9.8 2 17.3 3.3 23 3.9 2.8.3 6.1.8 7.5 1.1 1.4.3 12.2.7 24 .9 26.6.4 38.2-.7 65.5-6.1 28-5.5 63.3-20.2 90-37.2 8.1-5.2 24.2-17 29.3-21.5 14.7-13 21.1-19.3 31.5-31 11-12.3 25.8-33.4 33.5-47.7 19.2-35.3 30.1-70.3 33.9-108.5 1.5-15.3.6-63.4-1.3-66.6-.2-.4-.6-3.1-1-6-.3-3-.8-5.7-1-6-.2-.4-.6-2.4-1-4.5-1-7.2-6.5-26.8-10.6-38.4-8.8-24.5-21-47.9-36.1-69-3.4-4.7-6.4-8.7-6.7-9-.3-.3-2.3-2.8-4.5-5.5-9.3-11.8-27.6-30-40-39.8-3.3-2.7-6.7-5.4-7.5-6-16.1-13-45.4-29.3-67.5-37.6-3.3-1.3-6.9-2.7-8-3.1-14.7-6.3-54.4-14.6-63.5-13.3zM95.4 302.5c-11.9 2.7-21.1 11.4-24.1 22.9-1 3.6-1.1 42.2-.2 47.1 2.4 13.1 12.3 22.8 25.5 25.2 5.6 1.1 8.7.8 19.4-1.2 4.1-.8 8.4-1.6 9.5-1.8 16.8-3 23.8-5.9 30.5-12.9 7-7.3 10.7-16.2 11.6-27.7 1.5-19.1-7.1-36.1-21.9-43.3-3.2-1.6-11.6-3.8-21.6-5.8-19.7-3.8-22.1-4-28.7-2.5zM148.5 418.7c-4.4.9-32.2 10.7-35.9 12.5-5.2 2.6-12.2 10-14.8 15.7-1.5 3.3-2.1 6.7-2.2 12.3-.1 7.4.1 8 5.6 19 6.2 12.2 16.4 28.6 20.6 33.1 1.5 1.6 5 4.1 7.7 5.5 4.2 2.2 6.3 2.6 13.5 2.7 11.7 0 16.3-2.3 32.4-16.3 16.1-14.2 18.8-17.4 21.8-26.2 7.2-21.7-7.7-50.1-29.9-57-6-1.8-13.9-2.4-18.8-1.3z"/></svg>
