<svg xmlns="http://www.w3.org/2000/svg" width="1140" height="200" fill="none" viewBox="0 0 1140 200"><path fill="#EE3E3D" d="M31.338 113.655c-5.418 1.073-10.745-2.454-11.136-7.963a80.424 80.424 0 0 1 0-11.384c.39-5.509 5.718-9.036 11.136-7.963l7.847 1.554c5.418 1.072 8.84 6.354 8.816 11.877v.448c.023 5.523-3.398 10.805-8.816 11.878l-7.847 1.553Z"/><path fill="#F5910A" d="M33.703 122.507c-5.227 1.78-8.076 7.498-5.658 12.464a80.97 80.97 0 0 0 5.692 9.859c3.091 4.576 9.467 4.968 13.623 1.331l6.02-5.268c4.157-3.637 4.483-9.925 1.701-14.696a25.623 25.623 0 0 1-.228-.395c-2.741-4.794-8.349-7.656-13.577-5.875l-7.573 2.58Z"/><path fill="#00A66C" d="M100.735 38.19c0 5.45 4.407 9.794 9.74 10.914 23.566 4.949 41.26 25.853 41.26 50.89 0 28.719-23.281 52-52 52-9.538 0-18.476-2.568-26.16-7.05-4.767-2.78-11.043-2.468-14.685 1.677l-5.285 6.014c-3.647 4.152-3.266 10.534 1.309 13.633 12.786 8.665 28.213 13.726 44.821 13.726 44.183 0 80-35.817 80-80 0-40.419-29.974-73.836-68.906-79.237-5.518-.766-10.094 3.796-10.094 9.366v8.067Z"/><path fill="#44403C" d="M291.439 83.314c-2.474-12.863-12.767-21.076-30.581-21.076-18.31 0-30.78 9.004-30.73 23.055-.05 11.081 6.779 18.403 21.377 21.421l12.965 2.721c6.978 1.534 10.244 4.354 10.244 8.658 0 5.194-5.642 9.103-14.153 9.103-8.215 0-13.559-3.562-15.093-10.39L228 118.489c2.227 13.951 13.955 22.213 32.61 22.213 19.002 0 32.413-9.845 32.462-24.242-.049-10.834-7.027-17.464-21.377-20.58l-12.965-2.77c-7.72-1.732-10.788-4.404-10.738-8.807-.05-5.145 5.641-8.707 13.113-8.707 8.264 0 12.619 4.502 14.004 9.499l16.33-1.781ZM345.798 63.228h-14.994V45.022h-17.913v18.206h-10.788V77.08h10.788v42.25c-.099 14.297 10.293 21.322 23.753 20.926 5.096-.148 8.61-1.137 10.54-1.781l-3.019-14c-.989.247-3.018.692-5.245.692-4.503 0-8.116-1.583-8.116-8.806V77.08h14.994V63.228ZM382.652 140.751c11.926 0 19.051-5.59 22.317-11.972h.594v10.439h17.221V88.36c0-20.086-16.379-26.122-30.878-26.122-15.984 0-28.256 7.124-32.215 20.977l16.726 2.374c1.781-5.194 6.829-9.647 15.588-9.647 8.313 0 12.866 4.255 12.866 11.725v.297c0 5.145-5.394 5.392-18.805 6.827-14.746 1.583-28.849 5.986-28.849 23.104 0 14.941 10.936 22.856 25.435 22.856Zm4.651-13.16c-7.472 0-12.816-3.413-12.816-9.993 0-6.877 5.988-9.746 14.004-10.884 4.701-.643 14.103-1.83 16.429-3.71v8.954c0 8.46-6.829 15.633-17.617 15.633ZM473.852 169c20.536 0 35.679-9.4 35.679-28.546V63.228h-17.666v12.566h-.99c-2.722-5.492-8.413-13.556-21.823-13.556-17.567 0-31.373 13.754-31.373 38.737 0 24.786 13.806 37.154 31.324 37.154 13.014 0 19.101-6.975 21.872-12.566h.891v14.397c0 10.884-7.423 15.485-17.617 15.485-10.788 0-15.538-5.096-17.715-9.252l-16.132 3.908c3.266 10.34 14.202 18.899 33.55 18.899Zm.149-44.921c-11.827 0-18.062-9.202-18.062-23.203 0-13.803 6.136-23.944 18.062-23.944 11.529 0 17.864 9.548 17.864 23.944 0 14.496-6.433 23.203-17.864 23.203ZM561.539 140.702c17.715 0 29.889-8.658 33.056-21.867l-16.726-1.88c-2.425 6.431-8.363 9.795-16.083 9.795-11.579 0-19.249-7.618-19.398-20.63h52.949v-5.491c0-26.666-16.033-38.39-34.738-38.39-21.774 0-35.976 15.979-35.976 39.429 0 23.846 14.005 39.034 36.916 39.034Zm-19.101-46.653c.544-9.697 7.719-17.86 18.408-17.86 10.293 0 17.221 7.52 17.32 17.86h-35.728ZM648.446 63.228h-14.994V45.022h-17.913v18.206h-10.788V77.08h10.788v42.25c-.099 14.297 10.293 21.322 23.753 20.926 5.097-.148 8.61-1.137 10.54-1.781l-3.019-14c-.989.247-3.018.692-5.245.692-4.503 0-8.116-1.583-8.116-8.806V77.08h14.994V63.228ZM663.428 139.218h17.913v-75.99h-17.913v75.99Zm9.006-86.775c5.691 0 10.342-4.354 10.342-9.697 0-5.392-4.651-9.746-10.342-9.746-5.74 0-10.392 4.354-10.392 9.746 0 5.343 4.652 9.697 10.392 9.697ZM699.762 139.218h17.913V93.01c0-9.35 6.235-15.683 13.955-15.683 7.571 0 12.767 5.096 12.767 12.913v48.978h17.567V91.823c0-8.559 5.097-14.496 13.757-14.496 7.225 0 12.965 4.255 12.965 13.655v48.236h17.963V88.211c0-16.969-9.798-25.973-23.753-25.973-11.035 0-19.447 5.442-22.812 13.902h-.792c-2.92-8.608-10.293-13.902-20.536-13.902-10.194 0-17.815 5.244-20.982 13.902h-.89V63.228h-17.122v75.99ZM858.472 140.702c17.715 0 29.888-8.658 33.055-21.867l-16.725-1.88c-2.425 6.431-8.363 9.795-16.083 9.795-11.579 0-19.25-7.618-19.398-20.63h52.949v-5.491c0-26.666-16.033-38.39-34.739-38.39-21.773 0-35.975 15.979-35.975 39.429 0 23.846 14.004 39.034 36.916 39.034ZM839.37 94.049c.545-9.697 7.72-17.86 18.409-17.86 10.293 0 17.221 7.52 17.319 17.86H839.37ZM907.424 139.218h17.914V94.544c0-9.647 7.274-16.474 17.121-16.474 3.019 0 6.78.544 8.314 1.038V62.634c-1.633-.297-4.454-.495-6.433-.495-8.71 0-15.984 4.948-18.755 13.754h-.792V63.228h-17.369v75.99Z"/><path fill="#00A66C" d="M973.709 139.306c5.839 0 10.837-4.848 10.887-10.884-.05-5.937-5.048-10.785-10.887-10.785-6.037 0-10.936 4.848-10.887 10.785-.049 6.036 4.85 10.884 10.887 10.884ZM1003.09 138.218H1021v-75.99h-17.91v75.99Zm9.01-86.775c5.69 0 10.34-4.354 10.34-9.697 0-5.392-4.65-9.746-10.34-9.746-5.74 0-10.4 4.354-10.4 9.746 0 5.343 4.66 9.697 10.4 9.697ZM1072.58 139.702c22.27 0 36.42-15.683 36.42-39.183 0-23.549-14.15-39.28-36.42-39.28-22.27 0-36.42 15.732-36.42 39.28 0 23.5 14.15 39.183 36.42 39.183Zm.1-14.347c-12.32 0-18.36-10.983-18.36-24.885 0-13.902 6.04-25.033 18.36-25.033 12.12 0 18.16 11.131 18.16 25.033 0 13.902-6.04 24.885-18.16 24.885Z"/></svg>